<mxfile host="app.diagrams.net" modified="2022-01-10T05:32:58.353Z" agent="5.0 (Macintosh; Intel Mac OS X 10_15_7) AppleWebKit/537.36 (KHTML, like Gecko) Chrome/96.0.4664.110 Safari/537.36" etag="E-6S-xq3gif-9ZDb8I_O" version="16.1.0" type="github">
  <diagram id="a8XWor6rHgZrtsmctbnx" name="第 1 页">
    <mxGraphModel dx="1042" dy="-622" grid="1" gridSize="10" guides="1" tooltips="1" connect="1" arrows="1" fold="1" page="1" pageScale="1" pageWidth="827" pageHeight="1169" background="#ffffff" math="0" shadow="0">
      <root>
        <mxCell id="0" />
        <mxCell id="1" parent="0" />
        <mxCell id="c3BXOGabwOEL4F8HaS5W-38" value="" style="rounded=0;whiteSpace=wrap;html=1;shadow=1;" parent="1" vertex="1">
          <mxGeometry x="80" y="1600" width="90" height="50" as="geometry" />
        </mxCell>
        <mxCell id="c3BXOGabwOEL4F8HaS5W-1" style="rounded=0;orthogonalLoop=1;jettySize=auto;html=1;exitX=0;exitY=1;exitDx=0;exitDy=0;entryX=0.5;entryY=0;entryDx=0;entryDy=0;endArrow=none;endFill=0;sketch=0;" parent="1" source="c3BXOGabwOEL4F8HaS5W-3" target="c3BXOGabwOEL4F8HaS5W-4" edge="1">
          <mxGeometry relative="1" as="geometry" />
        </mxCell>
        <mxCell id="c3BXOGabwOEL4F8HaS5W-2" style="edgeStyle=none;rounded=0;orthogonalLoop=1;jettySize=auto;html=1;exitX=1;exitY=1;exitDx=0;exitDy=0;entryX=0.5;entryY=0;entryDx=0;entryDy=0;endArrow=none;endFill=0;sketch=0;" parent="1" source="c3BXOGabwOEL4F8HaS5W-3" target="c3BXOGabwOEL4F8HaS5W-7" edge="1">
          <mxGeometry relative="1" as="geometry" />
        </mxCell>
        <mxCell id="c3BXOGabwOEL4F8HaS5W-3" value="&lt;font face=&quot;Comic Sans MS&quot;&gt;3&lt;/font&gt;" style="ellipse;whiteSpace=wrap;html=1;fillColor=#f5f5f5;strokeColor=#666666;shadow=1;fontColor=#333333;sketch=0;" parent="1" vertex="1">
          <mxGeometry x="350" y="1310" width="40" height="40" as="geometry" />
        </mxCell>
        <mxCell id="c3BXOGabwOEL4F8HaS5W-4" value="&lt;font face=&quot;Comic Sans MS&quot;&gt;9&lt;/font&gt;" style="ellipse;whiteSpace=wrap;html=1;fillColor=#f5f5f5;strokeColor=#666666;shadow=1;fontColor=#333333;sketch=0;" parent="1" vertex="1">
          <mxGeometry x="310" y="1390" width="40" height="40" as="geometry" />
        </mxCell>
        <mxCell id="c3BXOGabwOEL4F8HaS5W-5" style="edgeStyle=none;rounded=0;orthogonalLoop=1;jettySize=auto;html=1;exitX=0;exitY=1;exitDx=0;exitDy=0;entryX=0.5;entryY=0;entryDx=0;entryDy=0;endArrow=none;endFill=0;sketch=0;" parent="1" source="c3BXOGabwOEL4F8HaS5W-7" target="c3BXOGabwOEL4F8HaS5W-8" edge="1">
          <mxGeometry relative="1" as="geometry" />
        </mxCell>
        <mxCell id="c3BXOGabwOEL4F8HaS5W-6" style="edgeStyle=none;rounded=0;orthogonalLoop=1;jettySize=auto;html=1;exitX=1;exitY=1;exitDx=0;exitDy=0;entryX=0.5;entryY=0;entryDx=0;entryDy=0;endArrow=none;endFill=0;sketch=0;" parent="1" source="c3BXOGabwOEL4F8HaS5W-7" target="c3BXOGabwOEL4F8HaS5W-9" edge="1">
          <mxGeometry relative="1" as="geometry" />
        </mxCell>
        <mxCell id="c3BXOGabwOEL4F8HaS5W-7" value="&lt;font face=&quot;Comic Sans MS&quot;&gt;20&lt;/font&gt;" style="ellipse;whiteSpace=wrap;html=1;fillColor=#f5f5f5;strokeColor=#666666;shadow=1;fontColor=#333333;sketch=0;" parent="1" vertex="1">
          <mxGeometry x="390" y="1390" width="40" height="40" as="geometry" />
        </mxCell>
        <mxCell id="c3BXOGabwOEL4F8HaS5W-8" value="&lt;font face=&quot;Comic Sans MS&quot;&gt;15&lt;/font&gt;" style="ellipse;whiteSpace=wrap;html=1;fillColor=#f5f5f5;strokeColor=#666666;shadow=1;fontColor=#333333;sketch=0;" parent="1" vertex="1">
          <mxGeometry x="350" y="1470" width="40" height="40" as="geometry" />
        </mxCell>
        <mxCell id="c3BXOGabwOEL4F8HaS5W-9" value="&lt;font face=&quot;Comic Sans MS&quot;&gt;7&lt;/font&gt;" style="ellipse;whiteSpace=wrap;html=1;shadow=1;fillColor=#f5f5f5;fontColor=#333333;strokeColor=#666666;sketch=0;" parent="1" vertex="1">
          <mxGeometry x="430" y="1470" width="40" height="40" as="geometry" />
        </mxCell>
        <mxCell id="c3BXOGabwOEL4F8HaS5W-29" value="sum=3" style="text;html=1;strokeColor=none;fillColor=none;align=center;verticalAlign=middle;whiteSpace=wrap;rounded=0;" parent="1" vertex="1">
          <mxGeometry x="300" y="1310" width="40" height="39" as="geometry" />
        </mxCell>
        <mxCell id="c3BXOGabwOEL4F8HaS5W-33" value="sum=sum+15=38" style="text;html=1;strokeColor=none;fillColor=none;align=center;verticalAlign=middle;whiteSpace=wrap;rounded=0;" parent="1" vertex="1">
          <mxGeometry x="240" y="1470" width="110" height="40" as="geometry" />
        </mxCell>
        <mxCell id="c3BXOGabwOEL4F8HaS5W-34" value="sum=sum+7=30" style="text;html=1;strokeColor=none;fillColor=none;align=center;verticalAlign=middle;whiteSpace=wrap;rounded=0;" parent="1" vertex="1">
          <mxGeometry x="480" y="1470" width="110" height="40" as="geometry" />
        </mxCell>
        <mxCell id="c3BXOGabwOEL4F8HaS5W-35" value="sum=sum+20=23" style="text;html=1;strokeColor=none;fillColor=none;align=center;verticalAlign=middle;whiteSpace=wrap;rounded=0;" parent="1" vertex="1">
          <mxGeometry x="450" y="1391" width="110" height="40" as="geometry" />
        </mxCell>
        <mxCell id="c3BXOGabwOEL4F8HaS5W-36" value="sum=sum+9=12" style="text;html=1;strokeColor=none;fillColor=none;align=center;verticalAlign=middle;whiteSpace=wrap;rounded=0;" parent="1" vertex="1">
          <mxGeometry x="180" y="1390" width="110" height="40" as="geometry" />
        </mxCell>
        <mxCell id="c3BXOGabwOEL4F8HaS5W-37" value="&lt;font face=&quot;Comic Sans MS&quot;&gt;3&lt;/font&gt;" style="ellipse;whiteSpace=wrap;html=1;fillColor=#f5f5f5;strokeColor=#666666;shadow=1;fontColor=#333333;sketch=0;" parent="1" vertex="1">
          <mxGeometry x="80" y="1605" width="40" height="40" as="geometry" />
        </mxCell>
        <mxCell id="c3BXOGabwOEL4F8HaS5W-55" style="edgeStyle=orthogonalEdgeStyle;rounded=0;orthogonalLoop=1;jettySize=auto;html=1;exitX=1;exitY=0.5;exitDx=0;exitDy=0;entryX=0;entryY=0.5;entryDx=0;entryDy=0;" parent="1" source="c3BXOGabwOEL4F8HaS5W-39" target="c3BXOGabwOEL4F8HaS5W-44" edge="1">
          <mxGeometry relative="1" as="geometry" />
        </mxCell>
        <mxCell id="c3BXOGabwOEL4F8HaS5W-39" value="sum=3" style="rounded=0;whiteSpace=wrap;html=1;shadow=1;" parent="1" vertex="1">
          <mxGeometry x="120" y="1600" width="50" height="50" as="geometry" />
        </mxCell>
        <mxCell id="c3BXOGabwOEL4F8HaS5W-43" value="" style="rounded=0;whiteSpace=wrap;html=1;shadow=1;" parent="1" vertex="1">
          <mxGeometry x="210" y="1600" width="90" height="50" as="geometry" />
        </mxCell>
        <mxCell id="c3BXOGabwOEL4F8HaS5W-59" style="edgeStyle=orthogonalEdgeStyle;rounded=0;orthogonalLoop=1;jettySize=auto;html=1;exitX=0.5;exitY=1;exitDx=0;exitDy=0;entryX=0.5;entryY=1;entryDx=0;entryDy=0;fillColor=#f8cecc;strokeColor=#b85450;" parent="1" source="c3BXOGabwOEL4F8HaS5W-44" target="c3BXOGabwOEL4F8HaS5W-37" edge="1">
          <mxGeometry relative="1" as="geometry" />
        </mxCell>
        <mxCell id="c3BXOGabwOEL4F8HaS5W-44" value="&lt;font face=&quot;Comic Sans MS&quot;&gt;9&lt;/font&gt;" style="ellipse;whiteSpace=wrap;html=1;fillColor=#f5f5f5;strokeColor=#666666;shadow=1;fontColor=#333333;sketch=0;" parent="1" vertex="1">
          <mxGeometry x="210" y="1605" width="40" height="40" as="geometry" />
        </mxCell>
        <mxCell id="c3BXOGabwOEL4F8HaS5W-56" style="edgeStyle=orthogonalEdgeStyle;rounded=0;orthogonalLoop=1;jettySize=auto;html=1;exitX=1;exitY=0.5;exitDx=0;exitDy=0;entryX=0;entryY=0.5;entryDx=0;entryDy=0;" parent="1" source="c3BXOGabwOEL4F8HaS5W-45" target="c3BXOGabwOEL4F8HaS5W-47" edge="1">
          <mxGeometry relative="1" as="geometry" />
        </mxCell>
        <mxCell id="c3BXOGabwOEL4F8HaS5W-45" value="sum=12" style="rounded=0;whiteSpace=wrap;html=1;shadow=1;" parent="1" vertex="1">
          <mxGeometry x="250" y="1600" width="50" height="50" as="geometry" />
        </mxCell>
        <mxCell id="c3BXOGabwOEL4F8HaS5W-46" value="" style="rounded=0;whiteSpace=wrap;html=1;shadow=1;" parent="1" vertex="1">
          <mxGeometry x="340" y="1600" width="90" height="50" as="geometry" />
        </mxCell>
        <mxCell id="c3BXOGabwOEL4F8HaS5W-60" style="edgeStyle=orthogonalEdgeStyle;rounded=0;orthogonalLoop=1;jettySize=auto;html=1;exitX=0;exitY=1;exitDx=0;exitDy=0;entryX=1;entryY=1;entryDx=0;entryDy=0;fillColor=#f8cecc;strokeColor=#b85450;" parent="1" source="c3BXOGabwOEL4F8HaS5W-47" target="c3BXOGabwOEL4F8HaS5W-37" edge="1">
          <mxGeometry relative="1" as="geometry">
            <mxPoint x="130" y="1710" as="targetPoint" />
            <Array as="points">
              <mxPoint x="346" y="1680" />
              <mxPoint x="114" y="1680" />
            </Array>
          </mxGeometry>
        </mxCell>
        <mxCell id="c3BXOGabwOEL4F8HaS5W-47" value="&lt;font face=&quot;Comic Sans MS&quot;&gt;20&lt;/font&gt;" style="ellipse;whiteSpace=wrap;html=1;fillColor=#f5f5f5;strokeColor=#666666;shadow=1;fontColor=#333333;sketch=0;" parent="1" vertex="1">
          <mxGeometry x="340" y="1605" width="40" height="40" as="geometry" />
        </mxCell>
        <mxCell id="c3BXOGabwOEL4F8HaS5W-57" style="edgeStyle=orthogonalEdgeStyle;rounded=0;orthogonalLoop=1;jettySize=auto;html=1;exitX=1;exitY=0.5;exitDx=0;exitDy=0;entryX=0;entryY=0.5;entryDx=0;entryDy=0;" parent="1" source="c3BXOGabwOEL4F8HaS5W-48" target="c3BXOGabwOEL4F8HaS5W-49" edge="1">
          <mxGeometry relative="1" as="geometry" />
        </mxCell>
        <mxCell id="c3BXOGabwOEL4F8HaS5W-48" value="sum=23" style="rounded=0;whiteSpace=wrap;html=1;shadow=1;" parent="1" vertex="1">
          <mxGeometry x="380" y="1600" width="50" height="50" as="geometry" />
        </mxCell>
        <mxCell id="c3BXOGabwOEL4F8HaS5W-49" value="" style="rounded=0;whiteSpace=wrap;html=1;shadow=1;" parent="1" vertex="1">
          <mxGeometry x="470" y="1600" width="90" height="50" as="geometry" />
        </mxCell>
        <mxCell id="c3BXOGabwOEL4F8HaS5W-61" style="edgeStyle=orthogonalEdgeStyle;rounded=0;orthogonalLoop=1;jettySize=auto;html=1;exitX=0.5;exitY=1;exitDx=0;exitDy=0;entryX=1;entryY=1;entryDx=0;entryDy=0;fillColor=#f8cecc;strokeColor=#b85450;" parent="1" source="c3BXOGabwOEL4F8HaS5W-50" target="c3BXOGabwOEL4F8HaS5W-47" edge="1">
          <mxGeometry relative="1" as="geometry">
            <Array as="points">
              <mxPoint x="490" y="1665" />
              <mxPoint x="374" y="1665" />
            </Array>
          </mxGeometry>
        </mxCell>
        <mxCell id="c3BXOGabwOEL4F8HaS5W-50" value="&lt;font face=&quot;Comic Sans MS&quot;&gt;15&lt;/font&gt;" style="ellipse;whiteSpace=wrap;html=1;fillColor=#f5f5f5;strokeColor=#666666;shadow=1;fontColor=#333333;sketch=0;" parent="1" vertex="1">
          <mxGeometry x="470" y="1605" width="40" height="40" as="geometry" />
        </mxCell>
        <mxCell id="c3BXOGabwOEL4F8HaS5W-58" style="edgeStyle=orthogonalEdgeStyle;rounded=0;orthogonalLoop=1;jettySize=auto;html=1;exitX=1;exitY=0.5;exitDx=0;exitDy=0;entryX=0;entryY=0.5;entryDx=0;entryDy=0;" parent="1" source="c3BXOGabwOEL4F8HaS5W-51" target="c3BXOGabwOEL4F8HaS5W-53" edge="1">
          <mxGeometry relative="1" as="geometry" />
        </mxCell>
        <mxCell id="c3BXOGabwOEL4F8HaS5W-51" value="sum=38" style="rounded=0;whiteSpace=wrap;html=1;shadow=1;" parent="1" vertex="1">
          <mxGeometry x="510" y="1600" width="50" height="50" as="geometry" />
        </mxCell>
        <mxCell id="c3BXOGabwOEL4F8HaS5W-52" value="" style="rounded=0;whiteSpace=wrap;html=1;shadow=1;" parent="1" vertex="1">
          <mxGeometry x="600" y="1600" width="90" height="50" as="geometry" />
        </mxCell>
        <mxCell id="c3BXOGabwOEL4F8HaS5W-62" style="edgeStyle=orthogonalEdgeStyle;rounded=0;orthogonalLoop=1;jettySize=auto;html=1;exitX=0.5;exitY=1;exitDx=0;exitDy=0;entryX=0.5;entryY=1;entryDx=0;entryDy=0;fillColor=#f8cecc;strokeColor=#b85450;" parent="1" source="c3BXOGabwOEL4F8HaS5W-53" target="c3BXOGabwOEL4F8HaS5W-47" edge="1">
          <mxGeometry relative="1" as="geometry">
            <Array as="points">
              <mxPoint x="620" y="1680" />
              <mxPoint x="360" y="1680" />
            </Array>
          </mxGeometry>
        </mxCell>
        <mxCell id="c3BXOGabwOEL4F8HaS5W-53" value="&lt;font face=&quot;Comic Sans MS&quot;&gt;7&lt;/font&gt;" style="ellipse;whiteSpace=wrap;html=1;fillColor=#f5f5f5;strokeColor=#666666;shadow=1;fontColor=#333333;sketch=0;" parent="1" vertex="1">
          <mxGeometry x="600" y="1605" width="40" height="40" as="geometry" />
        </mxCell>
        <mxCell id="c3BXOGabwOEL4F8HaS5W-54" value="sum=30" style="rounded=0;whiteSpace=wrap;html=1;shadow=1;" parent="1" vertex="1">
          <mxGeometry x="640" y="1600" width="50" height="50" as="geometry" />
        </mxCell>
        <mxCell id="c3BXOGabwOEL4F8HaS5W-64" value="&lt;font face=&quot;Comic Sans MS&quot; style=&quot;font-size: 14px&quot;&gt;红色箭头表示父子依赖关系&lt;br&gt;(例如节点20为节点3的子节点)&lt;br&gt;&lt;/font&gt;" style="text;html=1;strokeColor=none;fillColor=none;align=center;verticalAlign=middle;whiteSpace=wrap;rounded=0;shadow=1;" parent="1" vertex="1">
          <mxGeometry x="285" y="1690" width="200" height="40" as="geometry" />
        </mxCell>
      </root>
    </mxGraphModel>
  </diagram>
</mxfile>
